# xmcd
#
# Track frame offsets: 
#        150
#        20489
#        38203
#        69949
#
# Disc length: 1170 seconds
#
# Revision: 0
# Processed by: cddbd v1.5.2PL0 Copyright (c) Steve Scherf et al.
# Submitted via: ExactAudioCopyFreeDBPlugin 1.0
#
DISCID=2a049004
DTITLE=Various Artists / Anveshana (1985)
DYEAR=2014
DGENRE=Soundtrack
TTITLE0=SP Balu, S Janaki / Keeravani
TTITLE1=SP Balu, S Janaki / Ekantha Vela
TTITLE2=S Janaki / Edhalo Laya
TTITLE3=SP Balu, S Janaki / Ilalo
EXTD=
EXTT0=
EXTT1=
EXTT2=
EXTT3=
PLAYORDER=
